<svg xmlns="http://www.w3.org/2000/svg" width="1200" height="630" viewBox="0 0 1200 630" role="img" aria-label="Mesaj Paneli  Telegram and WhatsApp unified inbox">
  <defs>
    <linearGradient id="bg" x1="0%" y1="0%" x2="100%" y2="100%">
      <stop offset="0%" style="stop-color:#0b0f14"/>
      <stop offset="100%" style="stop-color:#151b24"/>
    </linearGradient>
    <linearGradient id="accent" x1="0%" y1="0%" x2="100%" y2="0%">
      <stop offset="0%" style="stop-color:#3b82f6"/>
      <stop offset="100%" style="stop-color:#22c55e"/>
    </linearGradient>
    <filter id="shadow" x="-20%" y="-20%" width="140%" height="140%">
      <feDropShadow dx="0" dy="8" stdDeviation="16" flood-opacity="0.35"/>
    </filter>
  </defs>
  <rect width="1200" height="630" fill="url(#bg)"/>
  <rect x="80" y="80" width="1040" height="470" rx="24" fill="#1a2230" filter="url(#shadow)"/>
  <!-- Sidebar -->
  <rect x="80" y="80" width="220" height="470" rx="24" fill="#121820"/>
  <rect x="80" y="80" width="220" height="470" rx="24" fill="none" stroke="#2a3544" stroke-width="1"/>
  <text x="110" y="130" fill="#e8edf4" font-family="system-ui,sans-serif" font-size="22" font-weight="700">Mesaj Paneli</text>
  <rect x="110" y="145" width="48" height="20" rx="10" fill="#3b82f6" opacity="0.9"/>
  <text x="118" y="159" fill="#fff" font-family="system-ui,sans-serif" font-size="11" font-weight="600">Pro</text>
  <rect x="110" y="175" width="160" height="36" rx="8" fill="#243044"/>
  <text x="126" y="198" fill="#94a3b8" font-family="system-ui,sans-serif" font-size="13">Sohbetler</text>
  <rect x="110" y="220" width="160" height="36" rx="8" fill="#1e2a3a"/>
  <text x="126" y="243" fill="#e8edf4" font-family="system-ui,sans-serif" font-size="13">Yeni Mesaj</text>
  <rect x="110" y="265" width="160" height="36" rx="8" fill="#243044"/>
  <text x="126" y="288" fill="#94a3b8" font-family="system-ui,sans-serif" font-size="13">Zamanlanm1_</text>
  <!-- Chat list -->
  <rect x="310" y="100" width="280" height="430" rx="12" fill="#151d28"/>
  <circle cx="340" cy="140" r="18" fill="#3b82f6"/>
  <text x="368" y="145" fill="#e8edf4" font-family="system-ui,sans-serif" font-size="14" font-weight="600">Annem</text>
  <text x="368" y="162" fill="#64748b" font-family="system-ui,sans-serif" font-size="11">Merhaba, nas1ls1n?</text>
  <circle cx="340" cy="195" r="18" fill="#22c55e"/>
  <text x="368" y="200" fill="#e8edf4" font-family="system-ui,sans-serif" font-size="14">0_ Grubu</text>
  <text x="368" y="217" fill="#64748b" font-family="system-ui,sans-serif" font-size="11">Toplant1 15:00</text>
  <!-- Chat thread -->
  <rect x="610" y="100" width="490" height="370" rx="12" fill="#151d28"/>
  <rect x="640" y="140" width="200" height="44" rx="12" fill="#243044"/>
  <text x="656" y="168" fill="#e8edf4" font-family="system-ui,sans-serif" font-size="13">Merhaba! =K</text>
  <rect x="820" y="200" width="240" height="44" rx="12" fill="#1d4ed8"/>
  <text x="836" y="228" fill="#fff" font-family="system-ui,sans-serif" font-size="13">0yiyim, te_ekkürler</text>
  <rect x="640" y="260" width="180" height="80" rx="12" fill="#243044"/>
  <text x="656" y="290" fill="#94a3b8" font-family="system-ui,sans-serif" font-size="12">=÷ Fotoraf</text>
  <!-- Compose bar -->
  <rect x="610" y="490" width="490" height="40" rx="10" fill="#1e2a3a"/>
  <text x="630" y="515" fill="#64748b" font-family="system-ui,sans-serif" font-size="13">Mesaj yaz1n...</text>
  <circle cx="1075" cy="510" r="14" fill="#3b82f6"/>
  <!-- Tagline -->
  <text x="600" y="580" text-anchor="middle" fill="#94a3b8" font-family="system-ui,sans-serif" font-size="20">Telegram + WhatsApp · Tek panel · Zamanlama · API</text>
</svg>
